<svg width="1160" height="280" viewBox="0 0 1160 280" xmlns="http://www.w3.org/2000/svg"><mask id="satori_om-id"><rect x="0" y="0" width="1160" height="280" fill="#fff"/></mask><clipPath id="satori_cp-id-0"><rect x="40" y="60" width="160" height="160"/></clipPath><mask id="satori_om-id-0"><rect x="40" y="60" width="160" height="160" fill="#fff"/></mask><image x="40" y="60" width="160" height="160" href="data:image/svg+xml;utf8,%3Csvg  xmlns=%22http://www.w3.org/2000/svg%22 width=%22160%22 height=%22160%22 viewBox=%220 0 512 512%22%3E%3Crect x=%22158%22 y=%2274%22 width=%2220%22 height=%2254%22 fill=%22%23ff4d97%22%3E%3C/rect%3E%3Crect x=%22158%22 y=%22384%22 width=%2220%22 height=%2254%22 fill=%22%23ff4d97%22%3E%3C/rect%3E%3Crect x=%22334%22 y=%2274%22 width=%2220%22 height=%2266%22 fill=%22%23ff4d97%22%3E%3C/rect%3E%3Crect x=%22334%22 y=%22376%22 width=%2220%22 height=%2262%22 fill=%22%23ff4d97%22%3E%3C/rect%3E%3Crect x=%22246%22 y=%22190%22 width=%2220%22 height=%2228%22 fill=%22%23ff4d97%22%3E%3C/rect%3E%3Crect x=%22246%22 y=%22262%22 width=%2220%22 height=%2228%22 fill=%22%23ff4d97%22%3E%3C/rect%3E%3Crect x=%22140%22 y=%22126%22 width=%2256%22 height=%22260%22 fill=%22%23eef1f6%22%3E%3C/rect%3E%3Crect x=%22316%22 y=%22138%22 width=%2256%22 height=%22240%22 fill=%22%23eef1f6%22%3E%3C/rect%3E%3Crect x=%22186%22 y=%22216%22 width=%22140%22 height=%2248%22 fill=%22%23eef1f6%22%3E%3C/rect%3E%3C/svg%3E" preserveAspectRatio="none" clip-path="url(#satori_cp-id-0)" mask="url(#satori_om-id-0)"/><mask id="satori_om-id-0-0"><rect x="40" y="60" width="0" height="160" fill="#fff"/></mask><mask id="satori_om-id-0-1"><rect x="40" y="60" width="0" height="160" fill="#fff"/></mask><mask id="satori_om-id-0-2"><rect x="40" y="60" width="0" height="160" fill="#fff"/></mask><mask id="satori_om-id-0-3"><rect x="40" y="60" width="0" height="160" fill="#fff"/></mask><mask id="satori_om-id-0-4"><rect x="40" y="60" width="0" height="160" fill="#fff"/></mask><mask id="satori_om-id-0-5"><rect x="40" y="60" width="0" height="160" fill="#fff"/></mask><mask id="satori_om-id-0-6"><rect x="40" y="60" width="0" height="160" fill="#fff"/></mask><mask id="satori_om-id-0-7"><rect x="40" y="60" width="0" height="160" fill="#fff"/></mask><mask id="satori_om-id-0-8"><rect x="40" y="60" width="0" height="160" fill="#fff"/></mask><mask id="satori_om-id-1"><rect x="230" y="99" width="890" height="82" fill="#fff"/></mask><mask id="satori_om-id-1-0"><rect x="230" y="99" width="391" height="82" fill="#fff"/></mask><g  ><path fill="#eef1f6" d="M243.9 165L233.7 165L233.7 115.5L243.9 115.5L243.9 135.4L264.9 135.4L264.9 115.5L275.1 115.5L275.1 165L264.9 165L264.9 144.1L243.9 144.1L243.9 165ZM300.2 165L289.1 165L306.5 115.5L319.7 115.5L337.0 165L325.7 165L322.2 154.2L303.8 154.2L300.2 165ZM308.2 140.9L306.5 146.0L319.6 146.0L317.9 140.9Q316.8 137.1 315.6 133.2Q314.4 129.3 313.1 124.7L313.1 124.7Q311.8 129.3 310.6 133.2Q309.4 137.1 308.2 140.9L308.2 140.9ZM361.3 165L351.0 165L351.0 115.5L370.8 115.5Q376.4 115.5 380.5 117.5Q384.5 119.5 386.7 123.1Q389.0 126.8 389.0 131.8L389.0 131.8Q389.0 136.7 386.6 140.3Q384.3 143.8 380.1 145.8L380.1 145.8L390.1 165L379.1 165L370.3 147.7Q370.3 147.7 370.2 147.7L370.2 147.7L361.3 147.7L361.3 165ZM361.3 124.0L361.3 139.5L370.2 139.5Q374.3 139.5 376.6 137.4Q379.0 135.3 379.0 131.8L379.0 131.8Q379.0 128.2 376.6 126.1Q374.2 124.0 370.2 124.0L370.2 124.0L361.3 124.0ZM415.5 165L405.3 165L405.3 115.5L416.0 115.5L431.9 140.8Q432.8 142.2 434.3 144.8Q435.7 147.3 437.2 150.0L437.2 150.0Q437.1 147.1 437.0 144.3Q437.0 141.6 437.0 140.0L437.0 140.0L437.0 115.5L447.2 115.5L447.2 165L436.4 165L422.0 142.1Q420.9 140.4 419.1 137.4Q417.3 134.3 415.3 130.5L415.3 130.5Q415.4 134.4 415.4 137.4Q415.5 140.5 415.5 142.1L415.5 142.1L415.5 165ZM500.1 165L464.6 165L464.6 115.5L500.1 115.5L500.1 124.3L474.8 124.3L474.8 135.7L498.2 135.7L498.2 144.3L474.8 144.3L474.8 156.2L500.1 156.2L500.1 165ZM534.6 165.8L534.6 165.8Q525.1 165.8 519.8 161.3Q514.5 156.8 514.5 148.8L514.5 148.8L524.4 148.8Q524.5 152.8 527.2 155.1Q530.0 157.4 534.7 157.4L534.7 157.4Q539.0 157.4 541.5 155.7Q544.1 153.9 544.1 151.1L544.1 151.1Q544.1 148.7 542.1 147.2Q540.0 145.7 535.3 144.6L535.3 144.6L530.1 143.5Q515.5 140.4 515.5 129.8L515.5 129.8Q515.5 125.3 517.9 121.9Q520.2 118.5 524.4 116.6Q528.7 114.7 534.3 114.7L534.3 114.7Q542.8 114.7 547.8 119.0Q552.8 123.2 553.1 130.7L553.1 130.7L543.5 130.7Q543.2 127.2 540.8 125.2Q538.3 123.1 534.3 123.1L534.3 123.1Q530.6 123.1 528.1 124.9Q525.7 126.6 525.7 129.3L525.7 129.3Q525.7 131.6 527.7 133.0Q529.7 134.4 534.3 135.3L534.3 135.3L539.0 136.4Q546.9 138.1 550.6 141.4Q554.3 144.8 554.3 150.4L554.3 150.4Q554.3 157.5 549.0 161.7Q543.8 165.8 534.6 165.8ZM589.0 165.8L589.0 165.8Q579.5 165.8 574.2 161.3Q568.9 156.8 568.9 148.8L568.9 148.8L578.8 148.8Q578.9 152.8 581.6 155.1Q584.3 157.4 589.1 157.4L589.1 157.4Q593.3 157.4 595.9 155.7Q598.5 153.9 598.5 151.1L598.5 151.1Q598.5 148.7 596.4 147.2Q594.3 145.7 589.6 144.6L589.6 144.6L584.4 143.5Q569.9 140.4 569.9 129.8L569.9 129.8Q569.9 125.3 572.2 121.9Q574.6 118.5 578.8 116.6Q583.0 114.7 588.7 114.7L588.7 114.7Q597.2 114.7 602.2 119.0Q607.2 123.2 607.4 130.7L607.4 130.7L597.9 130.7Q597.6 127.2 595.1 125.2Q592.7 123.1 588.7 123.1L588.7 123.1Q584.9 123.1 582.5 124.9Q580.1 126.6 580.1 129.3L580.1 129.3Q580.1 131.6 582.1 133.0Q584.1 134.4 588.6 135.3L588.6 135.3L593.4 136.4Q601.3 138.1 604.9 141.4Q608.6 144.8 608.6 150.4L608.6 150.4Q608.6 157.5 603.4 161.7Q598.1 165.8 589.0 165.8Z "/></g><mask id="satori_om-id-1-1"><rect x="621" y="99" width="76" height="82" fill="#fff"/></mask><g  ><path fill="#ff4d97" d="M653.9 147.2L653.9 147.2Q651.6 147.2 649.9 145.5Q648.3 143.9 648.3 141.5L648.3 141.5Q648.3 139.2 649.9 137.5Q651.6 135.9 653.9 135.9L653.9 135.9Q656.2 135.9 657.9 137.5Q659.5 139.2 659.5 141.5L659.5 141.5Q659.5 143.9 657.9 145.5Q656.2 147.2 653.9 147.2Z "/></g><mask id="satori_om-id-1-2"><rect x="697" y="99" width="423" height="82" fill="#fff"/></mask><g  ><path fill="#8c95a4" d="M713.5 124.3L698.5 124.3L698.5 115.5L738.7 115.5L738.7 124.3L723.7 124.3L723.7 165L713.5 165L713.5 124.3ZM789.4 165L753.9 165L753.9 115.5L789.4 115.5L789.4 124.3L764.1 124.3L764.1 135.7L787.5 135.7L787.5 144.3L764.1 144.3L764.1 156.2L789.4 156.2L789.4 165ZM815.4 165L805.2 165L805.2 115.5L825.0 115.5Q830.6 115.5 834.7 117.5Q838.7 119.5 840.9 123.1Q843.1 126.8 843.1 131.8L843.1 131.8Q843.1 136.7 840.8 140.3Q838.5 143.8 834.3 145.8L834.3 145.8L844.2 165L833.3 165L824.5 147.7Q824.5 147.7 824.4 147.7L824.4 147.7L815.4 147.7L815.4 165ZM815.4 124.0L815.4 139.5L824.4 139.5Q828.5 139.5 830.8 137.4Q833.1 135.3 833.1 131.8L833.1 131.8Q833.1 128.2 830.8 126.1Q828.4 124.0 824.4 124.0L824.4 124.0L815.4 124.0ZM869.5 165L859.4 165L859.4 115.5L874.4 115.5L882.5 138.6Q883.2 140.8 884.3 144.3Q885.3 147.8 886.2 151.0L886.2 151.0Q887.1 147.8 888.2 144.3Q889.2 140.8 889.9 138.6L889.9 138.6L897.9 115.5L912.8 115.5L912.8 165L902.8 165L902.8 141.5Q902.8 138.9 903.0 134.9Q903.1 130.8 903.2 126.7L903.2 126.7Q901.9 131.0 900.7 135.1Q899.5 139.1 898.7 141.5L898.7 141.5L890.3 165L882.0 165L873.6 141.5Q872.8 139.2 871.6 135.4Q870.4 131.6 869.2 127.4L869.2 127.4Q869.3 131.3 869.4 135.2Q869.5 139.0 869.5 141.5L869.5 141.5L869.5 165ZM930.2 115.5L940.5 115.5L940.5 165L930.2 165L930.2 115.5ZM968.1 165L957.8 165L957.8 115.5L968.6 115.5L984.5 140.8Q985.4 142.2 986.8 144.8Q988.3 147.3 989.7 150.0L989.7 150.0Q989.6 147.1 989.6 144.3Q989.6 141.6 989.6 140.0L989.6 140.0L989.6 115.5L999.8 115.5L999.8 165L989.0 165L974.6 142.1Q973.5 140.4 971.7 137.4Q969.9 134.3 967.8 130.5L967.8 130.5Q968.0 134.4 968.0 137.4Q968.1 140.5 968.1 142.1L968.1 142.1L968.1 165ZM1024.8 165L1013.8 165L1031.1 115.5L1044.3 115.5L1061.6 165L1050.3 165L1046.9 154.2L1028.4 154.2L1024.8 165ZM1032.8 140.9L1031.1 146.0L1044.2 146.0L1042.5 140.9Q1041.4 137.1 1040.2 133.2Q1039.1 129.3 1037.7 124.7L1037.7 124.7Q1036.4 129.3 1035.2 133.2Q1034.0 137.1 1032.8 140.9L1032.8 140.9ZM1108.4 165L1075.7 165L1075.7 115.5L1085.9 115.5L1085.9 156.2L1108.4 156.2L1108.4 165Z "/></g></svg>